<svg version="1.1" id="Layer_1" xmlns="http://www.w3.org/2000/svg" xmlns:xlink="http://www.w3.org/1999/xlink" x="0px" y="0px"
	 width="100%" viewBox="0 0 262 101" enable-background="new 0 0 262 101" xml:space="preserve">
<path fill="#FBFAFB" opacity="1.000000" stroke="none" 
	d="
M7.000000,1.000000 
	C88.354225,1.000000 169.708450,1.000000 251.493683,1.356329 
	C251.263992,2.188875 250.638611,2.726038 249.937408,3.132317 
	C235.466827,11.516428 219.500763,13.862269 203.206787,13.785418 
	C174.718948,13.651054 146.232635,12.983332 117.748192,12.413525 
	C101.762184,12.093740 85.776932,11.056219 69.985451,14.849607 
	C57.710049,17.798368 46.718372,23.009722 38.026966,32.341827 
	C34.818146,35.787189 31.699163,39.542843 33.198814,44.192646 
	C44.714176,41.371208 55.715176,36.965382 66.941368,36.287231 
	C89.165649,34.944695 111.522797,35.217285 133.809418,35.641632 
	C160.648407,36.152653 187.437485,36.808823 214.154221,33.256866 
	C232.012146,30.882669 247.455307,25.025023 255.412231,7.151698 
	C255.452225,7.061833 255.722824,7.074627 255.939117,7.505395 
	C255.992477,38.208122 255.992477,68.444931 255.992477,99.007896 
	C254.747482,99.007896 253.951782,99.007896 253.156097,99.007896 
	C172.431473,99.007965 91.706833,99.008270 10.982203,99.005524 
	C9.985023,99.005493 8.923145,99.161400 8.018554,98.861366 
	C7.580356,98.716026 7.437172,97.681213 7.558280,97.114136 
	C15.724031,94.828720 23.390802,92.042740 31.279175,90.211151 
	C53.142334,85.134781 75.356163,87.266449 97.492523,87.389465 
	C124.626747,87.540253 151.791199,87.716667 178.887238,86.571945 
	C189.649460,86.117279 200.544571,82.988792 210.860474,79.530426 
	C220.002548,76.465569 226.226196,69.129463 229.563522,59.885330 
	C230.105057,58.385342 229.398697,56.434834 229.269135,54.692566 
	C227.730270,54.989441 225.974167,54.906013 224.685989,55.641788 
	C211.244797,63.319012 196.511597,65.957451 181.387817,65.873062 
	C148.392944,65.688934 115.402107,64.864021 82.407669,64.460625 
	C73.757217,64.354866 65.004410,64.093735 56.464420,65.192619 
	C36.440506,67.769196 18.140303,73.995590 7.091371,92.461334 
	C7.014849,61.668133 7.007425,31.334066 7.000000,1.000000 
M212.475662,38.042740 
	C205.187729,38.671993 197.893219,39.904583 190.612991,39.825493 
	C159.970978,39.492596 129.335037,38.549068 98.693016,38.296574 
	C86.752182,38.198177 74.707855,38.596737 62.878754,40.095505 
	C48.536983,41.912632 35.664745,47.763870 25.657238,58.683769 
	C22.527260,62.099098 19.568338,65.814789 21.226189,71.124641 
	C21.872255,71.093010 22.423227,71.209824 22.840616,71.024986 
	C44.577671,61.398731 67.535469,60.148380 90.843460,60.805470 
	C114.315292,61.467178 137.795471,61.992542 161.275040,62.167999 
	C179.278229,62.302532 197.258194,61.305672 214.834976,56.967102 
	C226.111313,54.183704 235.336029,48.207546 240.880341,37.668892 
	C242.306717,34.957664 242.677078,31.690880 243.737839,27.956644 
	C232.679611,31.600302 223.008255,34.786995 212.475662,38.042740 
z"/>
<path fill="#242E86" opacity="1.000000" stroke="none" 
	d="
M255.885742,7.039479 
	C255.722824,7.074627 255.452225,7.061833 255.412231,7.151698 
	C247.455307,25.025023 232.012146,30.882669 214.154221,33.256866 
	C187.437485,36.808823 160.648407,36.152653 133.809418,35.641632 
	C111.522797,35.217285 89.165649,34.944695 66.941368,36.287231 
	C55.715176,36.965382 44.714176,41.371208 33.198814,44.192646 
	C31.699163,39.542843 34.818146,35.787189 38.026966,32.341827 
	C46.718372,23.009722 57.710049,17.798368 69.985451,14.849607 
	C85.776932,11.056219 101.762184,12.093740 117.748192,12.413525 
	C146.232635,12.983332 174.718948,13.651054 203.206787,13.785418 
	C219.500763,13.862269 235.466827,11.516428 249.937408,3.132317 
	C250.638611,2.726038 251.263992,2.188875 251.962341,1.356329 
	C253.066666,1.000000 254.133347,1.000000 255.554138,1.431946 
	C255.900742,3.589087 255.893234,5.314283 255.885742,7.039479 
z"/>
<path fill="#000000" opacity="1.000000" stroke="none" 
	d="
M255.939117,7.505395 
	C255.893234,5.314283 255.900742,3.589087 255.954132,1.431946 
	C258.330902,1.000000 260.661774,1.000000 262.994507,1.000000 
	C262.996338,34.628979 262.996338,68.257957 262.996338,101.943466 
	C175.666672,101.943466 88.333336,101.943466 1.003180,101.943466 
	C1.003180,68.258598 1.003180,34.629299 1.004770,1.000000 
	C2.671259,1.000000 4.336158,1.000000 6.500528,1.000000 
	C7.007425,31.334066 7.014849,61.668133 7.020869,92.870529 
	C7.066451,94.842270 7.113437,95.945686 7.160424,97.049103 
	C7.437172,97.681213 7.580356,98.716026 8.018554,98.861366 
	C8.923145,99.161400 9.985023,99.005493 10.982203,99.005524 
	C91.706833,99.008270 172.431473,99.007965 253.156097,99.007896 
	C253.951782,99.007896 254.747482,99.007896 255.992477,99.007896 
	C255.992477,68.444931 255.992477,38.208122 255.939117,7.505395 
z"/>
<path fill="#FF4445" opacity="1.000000" stroke="none" 
	d="
M7.558280,97.114136 
	C7.113437,95.945686 7.066451,94.842270 7.089966,93.329659 
	C18.140303,73.995590 36.440506,67.769196 56.464420,65.192619 
	C65.004410,64.093735 73.757217,64.354866 82.407669,64.460625 
	C115.402107,64.864021 148.392944,65.688934 181.387817,65.873062 
	C196.511597,65.957451 211.244797,63.319012 224.685989,55.641788 
	C225.974167,54.906013 227.730270,54.989441 229.269135,54.692566 
	C229.398697,56.434834 230.105057,58.385342 229.563522,59.885330 
	C226.226196,69.129463 220.002548,76.465569 210.860474,79.530426 
	C200.544571,82.988792 189.649460,86.117279 178.887238,86.571945 
	C151.791199,87.716667 124.626747,87.540253 97.492523,87.389465 
	C75.356163,87.266449 53.142334,85.134781 31.279175,90.211151 
	C23.390802,92.042740 15.724031,94.828720 7.558280,97.114136 
z"/>
<path fill="#026E50" opacity="1.000000" stroke="none" 
	d="
M212.906281,38.008213 
	C223.008255,34.786995 232.679611,31.600302 243.737839,27.956644 
	C242.677078,31.690880 242.306717,34.957664 240.880341,37.668892 
	C235.336029,48.207546 226.111313,54.183704 214.834976,56.967102 
	C197.258194,61.305672 179.278229,62.302532 161.275040,62.167999 
	C137.795471,61.992542 114.315292,61.467178 90.843460,60.805470 
	C67.535469,60.148380 44.577671,61.398731 22.840616,71.024986 
	C22.423227,71.209824 21.872255,71.093010 21.226189,71.124641 
	C19.568338,65.814789 22.527260,62.099098 25.657238,58.683769 
	C35.664745,47.763870 48.536983,41.912632 62.878754,40.095505 
	C74.707855,38.596737 86.752182,38.198177 98.693016,38.296574 
	C129.335037,38.549068 159.970978,39.492596 190.612991,39.825493 
	C197.893219,39.904583 205.187729,38.671993 212.906281,38.008213 
z"/>
</svg>